<mxfile host="app.diagrams.net" modified="2021-02-05T22:27:58.409Z" agent="5.0 (Windows NT 10.0; Win64; x64) AppleWebKit/537.36 (KHTML, like Gecko) Chrome/88.0.4324.96 Safari/537.36 Edg/88.0.705.56" etag="npomTxJ7IZnJTBxqf2Jz" version="14.2.9" type="github">
  <diagram id="uwr-2VRaK3Bo3xxsiduL" name="Page-1">
    <mxGraphModel dx="782" dy="469" grid="1" gridSize="10" guides="1" tooltips="1" connect="1" arrows="1" fold="1" page="1" pageScale="1" pageWidth="850" pageHeight="1100" math="0" shadow="0">
      <root>
        <mxCell id="0" />
        <mxCell id="1" parent="0" />
        <mxCell id="Fk3JvhJTrZO9K79bvDGP-5" style="edgeStyle=orthogonalEdgeStyle;rounded=0;orthogonalLoop=1;jettySize=auto;html=1;entryX=0.5;entryY=0;entryDx=0;entryDy=0;" edge="1" parent="1" source="Fk3JvhJTrZO9K79bvDGP-1" target="Fk3JvhJTrZO9K79bvDGP-2">
          <mxGeometry relative="1" as="geometry" />
        </mxCell>
        <mxCell id="Fk3JvhJTrZO9K79bvDGP-6" style="edgeStyle=orthogonalEdgeStyle;rounded=0;orthogonalLoop=1;jettySize=auto;html=1;entryX=0.422;entryY=-0.022;entryDx=0;entryDy=0;entryPerimeter=0;" edge="1" parent="1" source="Fk3JvhJTrZO9K79bvDGP-1" target="Fk3JvhJTrZO9K79bvDGP-3">
          <mxGeometry relative="1" as="geometry" />
        </mxCell>
        <mxCell id="Fk3JvhJTrZO9K79bvDGP-7" style="edgeStyle=orthogonalEdgeStyle;rounded=0;orthogonalLoop=1;jettySize=auto;html=1;entryX=0.5;entryY=0;entryDx=0;entryDy=0;" edge="1" parent="1" source="Fk3JvhJTrZO9K79bvDGP-1" target="Fk3JvhJTrZO9K79bvDGP-4">
          <mxGeometry relative="1" as="geometry" />
        </mxCell>
        <mxCell id="Fk3JvhJTrZO9K79bvDGP-1" value="&lt;b&gt;&lt;font style=&quot;font-size: 15px&quot;&gt;Terraform CLI&lt;/font&gt;&lt;/b&gt;" style="ellipse;whiteSpace=wrap;html=1;strokeColor=#6c8ebf;fillColor=#dae8fc;" vertex="1" parent="1">
          <mxGeometry x="340" y="110" width="120" height="70" as="geometry" />
        </mxCell>
        <mxCell id="Fk3JvhJTrZO9K79bvDGP-2" value="&lt;font style=&quot;font-size: 15px&quot;&gt;Local Computer&lt;/font&gt;" style="rounded=1;whiteSpace=wrap;html=1;fillColor=#fff2cc;strokeColor=#d6b656;" vertex="1" parent="1">
          <mxGeometry x="200" y="220" width="120" height="60" as="geometry" />
        </mxCell>
        <mxCell id="Fk3JvhJTrZO9K79bvDGP-3" value="&lt;font style=&quot;font-size: 15px&quot;&gt;Terraform Cloud&lt;/font&gt;" style="rounded=1;whiteSpace=wrap;html=1;fillColor=#ffe6cc;strokeColor=#d79b00;" vertex="1" parent="1">
          <mxGeometry x="350" y="220" width="120" height="60" as="geometry" />
        </mxCell>
        <mxCell id="Fk3JvhJTrZO9K79bvDGP-4" value="&lt;font style=&quot;font-size: 15px&quot;&gt;Terraform Enterprise&lt;/font&gt;" style="rounded=1;whiteSpace=wrap;html=1;fillColor=#ffe6cc;strokeColor=#d79b00;" vertex="1" parent="1">
          <mxGeometry x="500" y="220" width="120" height="60" as="geometry" />
        </mxCell>
      </root>
    </mxGraphModel>
  </diagram>
</mxfile>
